<mxfile host="app.diagrams.net" modified="2023-07-01T18:34:25.019Z" agent="Mozilla/5.0 (Macintosh; Intel Mac OS X 10_15_7) AppleWebKit/537.36 (KHTML, like Gecko) Chrome/114.0.0.0 Safari/537.36" etag="HWcQe-nJxuO1BCfO3oFV" version="21.1.4" type="device">
  <diagram name="Page-1" id="xZNYL5JgxHwfjiAJjJcF">
    <mxGraphModel dx="830" dy="532" grid="1" gridSize="10" guides="1" tooltips="1" connect="1" arrows="1" fold="1" page="1" pageScale="1" pageWidth="850" pageHeight="1100" math="0" shadow="0">
      <root>
        <mxCell id="0" />
        <mxCell id="1" parent="0" />
        <mxCell id="gRSrHqV1y0PgLWS4Wgda-1" value="&lt;font style=&quot;font-size: 50px;&quot;&gt;&lt;b&gt;DataModel&lt;/b&gt;&lt;/font&gt;" style="text;html=1;align=center;verticalAlign=middle;resizable=0;points=[];autosize=1;strokeColor=none;fillColor=none;" vertex="1" parent="1">
          <mxGeometry x="285" y="25" width="280" height="70" as="geometry" />
        </mxCell>
        <mxCell id="gRSrHqV1y0PgLWS4Wgda-18" value="" style="group" vertex="1" connectable="0" parent="1">
          <mxGeometry x="80" y="120" width="190" height="360" as="geometry" />
        </mxCell>
        <mxCell id="gRSrHqV1y0PgLWS4Wgda-3" value="&lt;b&gt;User&lt;/b&gt;" style="rounded=0;whiteSpace=wrap;html=1;" vertex="1" parent="gRSrHqV1y0PgLWS4Wgda-18">
          <mxGeometry width="190" height="30" as="geometry" />
        </mxCell>
        <mxCell id="gRSrHqV1y0PgLWS4Wgda-7" value="_id: String" style="rounded=0;whiteSpace=wrap;html=1;align=center;strokeColor=none;" vertex="1" parent="gRSrHqV1y0PgLWS4Wgda-18">
          <mxGeometry y="30" width="190" height="30" as="geometry" />
        </mxCell>
        <mxCell id="gRSrHqV1y0PgLWS4Wgda-8" value="firstName: String" style="rounded=0;whiteSpace=wrap;html=1;align=center;strokeColor=none;" vertex="1" parent="gRSrHqV1y0PgLWS4Wgda-18">
          <mxGeometry y="60" width="190" height="30" as="geometry" />
        </mxCell>
        <mxCell id="gRSrHqV1y0PgLWS4Wgda-9" value="lastName: String" style="rounded=0;whiteSpace=wrap;html=1;align=center;strokeColor=none;" vertex="1" parent="gRSrHqV1y0PgLWS4Wgda-18">
          <mxGeometry y="90" width="190" height="30" as="geometry" />
        </mxCell>
        <mxCell id="gRSrHqV1y0PgLWS4Wgda-10" value="friends: Array&amp;lt;Object&amp;gt;" style="rounded=0;whiteSpace=wrap;html=1;align=center;strokeColor=none;" vertex="1" parent="gRSrHqV1y0PgLWS4Wgda-18">
          <mxGeometry y="120" width="190" height="30" as="geometry" />
        </mxCell>
        <mxCell id="gRSrHqV1y0PgLWS4Wgda-11" value="email: String" style="rounded=0;whiteSpace=wrap;html=1;align=center;strokeColor=none;" vertex="1" parent="gRSrHqV1y0PgLWS4Wgda-18">
          <mxGeometry y="150" width="190" height="30" as="geometry" />
        </mxCell>
        <mxCell id="gRSrHqV1y0PgLWS4Wgda-12" value="password: String" style="rounded=0;whiteSpace=wrap;html=1;align=center;strokeColor=none;" vertex="1" parent="gRSrHqV1y0PgLWS4Wgda-18">
          <mxGeometry y="180" width="190" height="30" as="geometry" />
        </mxCell>
        <mxCell id="gRSrHqV1y0PgLWS4Wgda-13" value="picturePath: String Ref" style="rounded=0;whiteSpace=wrap;html=1;align=center;strokeColor=none;" vertex="1" parent="gRSrHqV1y0PgLWS4Wgda-18">
          <mxGeometry y="210" width="190" height="30" as="geometry" />
        </mxCell>
        <mxCell id="gRSrHqV1y0PgLWS4Wgda-14" value="location: String" style="rounded=0;whiteSpace=wrap;html=1;align=center;strokeColor=none;" vertex="1" parent="gRSrHqV1y0PgLWS4Wgda-18">
          <mxGeometry y="240" width="190" height="30" as="geometry" />
        </mxCell>
        <mxCell id="gRSrHqV1y0PgLWS4Wgda-15" value="occupation: String" style="rounded=0;whiteSpace=wrap;html=1;align=center;strokeColor=none;" vertex="1" parent="gRSrHqV1y0PgLWS4Wgda-18">
          <mxGeometry y="270" width="190" height="30" as="geometry" />
        </mxCell>
        <mxCell id="gRSrHqV1y0PgLWS4Wgda-16" value="viewedProfile: Number" style="rounded=0;whiteSpace=wrap;html=1;align=center;strokeColor=none;" vertex="1" parent="gRSrHqV1y0PgLWS4Wgda-18">
          <mxGeometry y="300" width="190" height="30" as="geometry" />
        </mxCell>
        <mxCell id="gRSrHqV1y0PgLWS4Wgda-17" value="impressions: Number" style="rounded=0;whiteSpace=wrap;html=1;align=center;strokeColor=none;" vertex="1" parent="gRSrHqV1y0PgLWS4Wgda-18">
          <mxGeometry y="330" width="190" height="30" as="geometry" />
        </mxCell>
        <mxCell id="gRSrHqV1y0PgLWS4Wgda-41" value="" style="group" vertex="1" connectable="0" parent="1">
          <mxGeometry x="480" y="110" width="190" height="330" as="geometry" />
        </mxCell>
        <mxCell id="gRSrHqV1y0PgLWS4Wgda-20" value="&lt;b&gt;Post&lt;/b&gt;" style="rounded=0;whiteSpace=wrap;html=1;" vertex="1" parent="gRSrHqV1y0PgLWS4Wgda-41">
          <mxGeometry width="190" height="30" as="geometry" />
        </mxCell>
        <mxCell id="gRSrHqV1y0PgLWS4Wgda-21" value="_id: String" style="rounded=0;whiteSpace=wrap;html=1;align=center;strokeColor=none;" vertex="1" parent="gRSrHqV1y0PgLWS4Wgda-41">
          <mxGeometry y="30" width="190" height="30" as="geometry" />
        </mxCell>
        <mxCell id="gRSrHqV1y0PgLWS4Wgda-32" value="userId: String Ref" style="rounded=0;whiteSpace=wrap;html=1;align=center;strokeColor=none;" vertex="1" parent="gRSrHqV1y0PgLWS4Wgda-41">
          <mxGeometry y="60" width="190" height="30" as="geometry" />
        </mxCell>
        <mxCell id="gRSrHqV1y0PgLWS4Wgda-33" value="firstName: String" style="rounded=0;whiteSpace=wrap;html=1;align=center;strokeColor=none;" vertex="1" parent="gRSrHqV1y0PgLWS4Wgda-41">
          <mxGeometry y="90" width="190" height="30" as="geometry" />
        </mxCell>
        <mxCell id="gRSrHqV1y0PgLWS4Wgda-34" value="lastName: String" style="rounded=0;whiteSpace=wrap;html=1;align=center;strokeColor=none;" vertex="1" parent="gRSrHqV1y0PgLWS4Wgda-41">
          <mxGeometry y="120" width="190" height="30" as="geometry" />
        </mxCell>
        <mxCell id="gRSrHqV1y0PgLWS4Wgda-35" value="location: String" style="rounded=0;whiteSpace=wrap;html=1;align=center;strokeColor=none;" vertex="1" parent="gRSrHqV1y0PgLWS4Wgda-41">
          <mxGeometry y="150" width="190" height="30" as="geometry" />
        </mxCell>
        <mxCell id="gRSrHqV1y0PgLWS4Wgda-36" value="description: String" style="rounded=0;whiteSpace=wrap;html=1;align=center;strokeColor=none;" vertex="1" parent="gRSrHqV1y0PgLWS4Wgda-41">
          <mxGeometry y="180" width="190" height="30" as="geometry" />
        </mxCell>
        <mxCell id="gRSrHqV1y0PgLWS4Wgda-68" style="edgeStyle=orthogonalEdgeStyle;rounded=0;orthogonalLoop=1;jettySize=auto;html=1;exitX=1;exitY=0.5;exitDx=0;exitDy=0;" edge="1" parent="gRSrHqV1y0PgLWS4Wgda-41" source="gRSrHqV1y0PgLWS4Wgda-37">
          <mxGeometry relative="1" as="geometry">
            <mxPoint x="190" y="640" as="targetPoint" />
            <Array as="points">
              <mxPoint x="290" y="225" />
              <mxPoint x="290" y="640" />
            </Array>
          </mxGeometry>
        </mxCell>
        <mxCell id="gRSrHqV1y0PgLWS4Wgda-37" value="userPicturePath: String Ref" style="rounded=0;whiteSpace=wrap;html=1;align=center;strokeColor=none;" vertex="1" parent="gRSrHqV1y0PgLWS4Wgda-41">
          <mxGeometry y="210" width="190" height="30" as="geometry" />
        </mxCell>
        <mxCell id="gRSrHqV1y0PgLWS4Wgda-67" style="edgeStyle=orthogonalEdgeStyle;rounded=0;orthogonalLoop=1;jettySize=auto;html=1;exitX=1;exitY=0.5;exitDx=0;exitDy=0;" edge="1" parent="gRSrHqV1y0PgLWS4Wgda-41" source="gRSrHqV1y0PgLWS4Wgda-38">
          <mxGeometry relative="1" as="geometry">
            <mxPoint x="190" y="640" as="targetPoint" />
            <Array as="points">
              <mxPoint x="270" y="255" />
              <mxPoint x="270" y="640" />
            </Array>
          </mxGeometry>
        </mxCell>
        <mxCell id="gRSrHqV1y0PgLWS4Wgda-38" value="picturePath: String Ref" style="rounded=0;whiteSpace=wrap;html=1;align=center;strokeColor=none;" vertex="1" parent="gRSrHqV1y0PgLWS4Wgda-41">
          <mxGeometry y="240" width="190" height="30" as="geometry" />
        </mxCell>
        <mxCell id="gRSrHqV1y0PgLWS4Wgda-70" style="edgeStyle=orthogonalEdgeStyle;rounded=0;orthogonalLoop=1;jettySize=auto;html=1;exitX=0;exitY=0.5;exitDx=0;exitDy=0;" edge="1" parent="gRSrHqV1y0PgLWS4Wgda-41" source="gRSrHqV1y0PgLWS4Wgda-39">
          <mxGeometry relative="1" as="geometry">
            <mxPoint x="-210" y="50" as="targetPoint" />
            <Array as="points">
              <mxPoint x="-70" y="285" />
              <mxPoint x="-70" y="90" />
              <mxPoint x="-210" y="90" />
            </Array>
          </mxGeometry>
        </mxCell>
        <mxCell id="gRSrHqV1y0PgLWS4Wgda-39" value="likes: Object&amp;lt;String Ref&amp;gt;" style="rounded=0;whiteSpace=wrap;html=1;align=center;strokeColor=none;" vertex="1" parent="gRSrHqV1y0PgLWS4Wgda-41">
          <mxGeometry y="270" width="190" height="30" as="geometry" />
        </mxCell>
        <mxCell id="gRSrHqV1y0PgLWS4Wgda-40" value="comments: Array&amp;lt;String&amp;gt;" style="rounded=0;whiteSpace=wrap;html=1;align=center;strokeColor=none;" vertex="1" parent="gRSrHqV1y0PgLWS4Wgda-41">
          <mxGeometry y="300" width="190" height="30" as="geometry" />
        </mxCell>
        <mxCell id="gRSrHqV1y0PgLWS4Wgda-54" value="" style="group" vertex="1" connectable="0" parent="1">
          <mxGeometry x="480" y="490" width="190" height="210" as="geometry" />
        </mxCell>
        <mxCell id="gRSrHqV1y0PgLWS4Wgda-43" value="&lt;b&gt;Friend (Sub Doc)&lt;/b&gt;" style="rounded=0;whiteSpace=wrap;html=1;" vertex="1" parent="gRSrHqV1y0PgLWS4Wgda-54">
          <mxGeometry width="190" height="30" as="geometry" />
        </mxCell>
        <mxCell id="gRSrHqV1y0PgLWS4Wgda-44" value="_id: String" style="rounded=0;whiteSpace=wrap;html=1;align=center;strokeColor=none;" vertex="1" parent="gRSrHqV1y0PgLWS4Wgda-54">
          <mxGeometry y="30" width="190" height="30" as="geometry" />
        </mxCell>
        <mxCell id="gRSrHqV1y0PgLWS4Wgda-46" value="firstName: String" style="rounded=0;whiteSpace=wrap;html=1;align=center;strokeColor=none;" vertex="1" parent="gRSrHqV1y0PgLWS4Wgda-54">
          <mxGeometry y="60" width="190" height="30" as="geometry" />
        </mxCell>
        <mxCell id="gRSrHqV1y0PgLWS4Wgda-47" value="lastName: String" style="rounded=0;whiteSpace=wrap;html=1;align=center;strokeColor=none;" vertex="1" parent="gRSrHqV1y0PgLWS4Wgda-54">
          <mxGeometry y="90" width="190" height="30" as="geometry" />
        </mxCell>
        <mxCell id="gRSrHqV1y0PgLWS4Wgda-48" value="location: String" style="rounded=0;whiteSpace=wrap;html=1;align=center;strokeColor=none;" vertex="1" parent="gRSrHqV1y0PgLWS4Wgda-54">
          <mxGeometry y="180" width="190" height="30" as="geometry" />
        </mxCell>
        <mxCell id="gRSrHqV1y0PgLWS4Wgda-50" value="occupation: String" style="rounded=0;whiteSpace=wrap;html=1;align=center;strokeColor=none;" vertex="1" parent="gRSrHqV1y0PgLWS4Wgda-54">
          <mxGeometry y="150" width="190" height="30" as="geometry" />
        </mxCell>
        <mxCell id="gRSrHqV1y0PgLWS4Wgda-51" value="picturePath: String Ref" style="rounded=0;whiteSpace=wrap;html=1;align=center;strokeColor=none;" vertex="1" parent="gRSrHqV1y0PgLWS4Wgda-54">
          <mxGeometry y="120" width="190" height="30" as="geometry" />
        </mxCell>
        <mxCell id="gRSrHqV1y0PgLWS4Wgda-63" value="" style="group" vertex="1" connectable="0" parent="1">
          <mxGeometry x="480" y="730" width="190" height="60" as="geometry" />
        </mxCell>
        <mxCell id="gRSrHqV1y0PgLWS4Wgda-56" value="&lt;b&gt;Images&lt;/b&gt;" style="rounded=0;whiteSpace=wrap;html=1;" vertex="1" parent="gRSrHqV1y0PgLWS4Wgda-63">
          <mxGeometry width="190" height="30" as="geometry" />
        </mxCell>
        <mxCell id="gRSrHqV1y0PgLWS4Wgda-57" value="path" style="rounded=0;whiteSpace=wrap;html=1;align=center;strokeColor=none;" vertex="1" parent="gRSrHqV1y0PgLWS4Wgda-63">
          <mxGeometry y="30" width="190" height="30" as="geometry" />
        </mxCell>
        <mxCell id="gRSrHqV1y0PgLWS4Wgda-64" style="edgeStyle=orthogonalEdgeStyle;rounded=0;orthogonalLoop=1;jettySize=auto;html=1;exitX=1;exitY=0.5;exitDx=0;exitDy=0;entryX=0;entryY=0.5;entryDx=0;entryDy=0;" edge="1" parent="1" source="gRSrHqV1y0PgLWS4Wgda-10" target="gRSrHqV1y0PgLWS4Wgda-43">
          <mxGeometry relative="1" as="geometry" />
        </mxCell>
        <mxCell id="gRSrHqV1y0PgLWS4Wgda-65" style="edgeStyle=orthogonalEdgeStyle;rounded=0;orthogonalLoop=1;jettySize=auto;html=1;exitX=1;exitY=0.5;exitDx=0;exitDy=0;entryX=0;entryY=0.5;entryDx=0;entryDy=0;" edge="1" parent="1" source="gRSrHqV1y0PgLWS4Wgda-13" target="gRSrHqV1y0PgLWS4Wgda-56">
          <mxGeometry relative="1" as="geometry">
            <Array as="points">
              <mxPoint x="350" y="345" />
              <mxPoint x="350" y="745" />
            </Array>
          </mxGeometry>
        </mxCell>
        <mxCell id="gRSrHqV1y0PgLWS4Wgda-66" style="edgeStyle=orthogonalEdgeStyle;rounded=0;orthogonalLoop=1;jettySize=auto;html=1;exitX=1;exitY=0.5;exitDx=0;exitDy=0;entryX=1;entryY=0.5;entryDx=0;entryDy=0;" edge="1" parent="1" source="gRSrHqV1y0PgLWS4Wgda-51" target="gRSrHqV1y0PgLWS4Wgda-56">
          <mxGeometry relative="1" as="geometry" />
        </mxCell>
        <mxCell id="gRSrHqV1y0PgLWS4Wgda-69" style="edgeStyle=orthogonalEdgeStyle;rounded=0;orthogonalLoop=1;jettySize=auto;html=1;exitX=0;exitY=0.5;exitDx=0;exitDy=0;" edge="1" parent="1" source="gRSrHqV1y0PgLWS4Wgda-32" target="gRSrHqV1y0PgLWS4Wgda-7">
          <mxGeometry relative="1" as="geometry" />
        </mxCell>
        <mxCell id="gRSrHqV1y0PgLWS4Wgda-71" style="edgeStyle=orthogonalEdgeStyle;rounded=0;orthogonalLoop=1;jettySize=auto;html=1;exitX=0;exitY=0.5;exitDx=0;exitDy=0;entryX=0;entryY=0.5;entryDx=0;entryDy=0;" edge="1" parent="1" source="gRSrHqV1y0PgLWS4Wgda-44" target="gRSrHqV1y0PgLWS4Wgda-7">
          <mxGeometry relative="1" as="geometry" />
        </mxCell>
      </root>
    </mxGraphModel>
  </diagram>
</mxfile>
